<mxfile host="app.diagrams.net" modified="2020-12-15T12:15:49.827Z" agent="5.0 (Macintosh; Intel Mac OS X 10_15_6) AppleWebKit/605.1.15 (KHTML, like Gecko) Version/14.0.1 Safari/605.1.15" etag="DG8PGUC0fvoYI7nVjJdc" version="14.0.1" type="github">
  <diagram id="C5RBs43oDa-KdzZeNtuy" name="General View">
    <mxGraphModel dx="1082" dy="721" grid="1" gridSize="10" guides="1" tooltips="1" connect="1" arrows="1" fold="1" page="1" pageScale="1" pageWidth="827" pageHeight="1169" math="0" shadow="0">
      <root>
        <mxCell id="WIyWlLk6GJQsqaUBKTNV-0" />
        <mxCell id="WIyWlLk6GJQsqaUBKTNV-1" parent="WIyWlLk6GJQsqaUBKTNV-0" />
        <mxCell id="ShlEn4j8O6UnqASMVVu4-1" value="&lt;blockquote style=&quot;margin: 0px 0px 0px 40px ; border: none ; padding: 0px ; font-size: 12px&quot;&gt;&lt;/blockquote&gt;&lt;blockquote style=&quot;margin: 0px 0px 0px 40px ; border: none ; padding: 0px ; font-size: 20px&quot;&gt;&lt;font&gt;AUTOMATION&lt;/font&gt;&lt;/blockquote&gt;&lt;blockquote style=&quot;margin: 0px 0px 0px 40px ; border: none ; padding: 0px ; font-size: 12px&quot;&gt;&lt;/blockquote&gt;&lt;blockquote style=&quot;margin: 0px 0px 0px 40px ; border: none ; padding: 0px ; font-size: 12px&quot;&gt;&lt;/blockquote&gt;&lt;blockquote style=&quot;margin: 0px 0px 0px 40px ; border: none ; padding: 0px ; font-size: 12px&quot;&gt;&lt;/blockquote&gt;&lt;blockquote style=&quot;margin: 0px 0px 0px 40px ; border: none ; padding: 0px ; font-size: 12px&quot;&gt;&lt;/blockquote&gt;&lt;blockquote style=&quot;margin: 0px 0px 0px 40px ; border: none ; padding: 0px ; font-size: 12px&quot;&gt;&lt;/blockquote&gt;&lt;blockquote style=&quot;margin: 0px 0px 0px 40px ; border: none ; padding: 0px ; font-size: 12px&quot;&gt;&lt;/blockquote&gt;&lt;blockquote style=&quot;margin: 0px 0px 0px 40px ; border: none ; padding: 0px ; font-size: 12px&quot;&gt;&lt;/blockquote&gt;" style="whiteSpace=wrap;html=1;fontSize=12;glass=0;strokeWidth=1;shadow=0;align=left;sketch=1;rounded=1;labelBackgroundColor=none;labelPosition=center;verticalLabelPosition=middle;verticalAlign=middle;fontStyle=1;fillColor=#dae8fc;strokeColor=#6c8ebf;fontFamily=Comic Sans MS;" parent="WIyWlLk6GJQsqaUBKTNV-1" vertex="1">
          <mxGeometry x="390" y="80" width="350" height="590" as="geometry" />
        </mxCell>
        <mxCell id="ShlEn4j8O6UnqASMVVu4-2" style="edgeStyle=orthogonalEdgeStyle;orthogonalLoop=1;jettySize=auto;html=1;exitX=1;exitY=0.5;exitDx=0;exitDy=0;sketch=1;curved=1;entryX=0;entryY=0.5;entryDx=0;entryDy=0;entryPerimeter=0;fontFamily=Comic Sans MS;" parent="WIyWlLk6GJQsqaUBKTNV-1" source="WIyWlLk6GJQsqaUBKTNV-3" target="gfSIw2gubmKbZ-zP2BRi-3" edge="1">
          <mxGeometry relative="1" as="geometry">
            <mxPoint x="210" y="190" as="sourcePoint" />
            <mxPoint x="290" y="257.2349999999999" as="targetPoint" />
          </mxGeometry>
        </mxCell>
        <mxCell id="ShlEn4j8O6UnqASMVVu4-3" value="Open request" style="edgeLabel;html=1;align=center;verticalAlign=middle;resizable=0;points=[];sketch=1;rounded=1;fontFamily=Comic Sans MS;" parent="ShlEn4j8O6UnqASMVVu4-2" vertex="1" connectable="0">
          <mxGeometry x="-0.3273" y="-1" relative="1" as="geometry">
            <mxPoint x="-5.83" y="-11" as="offset" />
          </mxGeometry>
        </mxCell>
        <mxCell id="WIyWlLk6GJQsqaUBKTNV-3" value="ITSM" style="whiteSpace=wrap;html=1;fontSize=20;glass=0;strokeWidth=1;shadow=0;sketch=1;rounded=1;fontStyle=1;fontFamily=Comic Sans MS;" parent="WIyWlLk6GJQsqaUBKTNV-1" vertex="1">
          <mxGeometry x="30" y="290" width="120" height="40" as="geometry" />
        </mxCell>
        <mxCell id="WIyWlLk6GJQsqaUBKTNV-5" value="" style="edgeStyle=orthogonalEdgeStyle;html=1;jettySize=auto;orthogonalLoop=1;fontSize=11;endArrow=block;endFill=0;endSize=8;strokeWidth=1;shadow=0;labelBackgroundColor=none;entryX=0.5;entryY=0;entryDx=0;entryDy=0;exitX=0.5;exitY=0;exitDx=0;exitDy=0;sketch=1;curved=1;fontFamily=Comic Sans MS;" parent="WIyWlLk6GJQsqaUBKTNV-1" source="WIyWlLk6GJQsqaUBKTNV-6" target="WIyWlLk6GJQsqaUBKTNV-3" edge="1">
          <mxGeometry x="-0.8043" y="10" relative="1" as="geometry">
            <mxPoint as="offset" />
            <mxPoint x="160" y="30" as="targetPoint" />
            <Array as="points">
              <mxPoint x="653" y="20" />
              <mxPoint x="90" y="20" />
            </Array>
          </mxGeometry>
        </mxCell>
        <mxCell id="ShlEn4j8O6UnqASMVVu4-29" value="No" style="edgeLabel;html=1;align=center;verticalAlign=middle;resizable=0;points=[];fontSize=12;fontFamily=Comic Sans MS;" parent="WIyWlLk6GJQsqaUBKTNV-5" vertex="1" connectable="0">
          <mxGeometry x="-0.9289" y="-3" relative="1" as="geometry">
            <mxPoint x="14.5" y="24" as="offset" />
          </mxGeometry>
        </mxCell>
        <mxCell id="WIyWlLk6GJQsqaUBKTNV-6" value="Approved" style="rhombus;whiteSpace=wrap;html=1;shadow=0;fontFamily=Comic Sans MS;fontSize=12;align=center;strokeWidth=1;spacing=6;spacingTop=-4;sketch=1;rounded=1;" parent="WIyWlLk6GJQsqaUBKTNV-1" vertex="1">
          <mxGeometry x="607.5" y="140" width="90" height="70" as="geometry" />
        </mxCell>
        <mxCell id="ShlEn4j8O6UnqASMVVu4-15" value="" style="edgeStyle=orthogonalEdgeStyle;orthogonalLoop=1;jettySize=auto;html=1;shadow=0;labelBackgroundColor=none;sourcePerimeterSpacing=5;endFill=0;sketch=1;curved=1;fontFamily=Comic Sans MS;" parent="WIyWlLk6GJQsqaUBKTNV-1" source="ShlEn4j8O6UnqASMVVu4-4" target="ShlEn4j8O6UnqASMVVu4-14" edge="1">
          <mxGeometry relative="1" as="geometry" />
        </mxCell>
        <mxCell id="ShlEn4j8O6UnqASMVVu4-4" value="Operations" style="whiteSpace=wrap;html=1;sketch=1;rounded=1;fontFamily=Comic Sans MS;" parent="WIyWlLk6GJQsqaUBKTNV-1" vertex="1">
          <mxGeometry x="560" y="280" width="120" height="60" as="geometry" />
        </mxCell>
        <mxCell id="ShlEn4j8O6UnqASMVVu4-16" style="edgeStyle=orthogonalEdgeStyle;orthogonalLoop=1;jettySize=auto;html=1;entryX=0.5;entryY=1;entryDx=0;entryDy=0;shadow=0;labelBackgroundColor=none;sourcePerimeterSpacing=5;endFill=0;sketch=1;curved=1;exitX=0;exitY=0.5;exitDx=0;exitDy=0;fontFamily=Comic Sans MS;" parent="WIyWlLk6GJQsqaUBKTNV-1" source="ShlEn4j8O6UnqASMVVu4-14" target="WIyWlLk6GJQsqaUBKTNV-3" edge="1">
          <mxGeometry relative="1" as="geometry">
            <Array as="points">
              <mxPoint x="573" y="440" />
              <mxPoint x="90" y="440" />
            </Array>
          </mxGeometry>
        </mxCell>
        <mxCell id="ShlEn4j8O6UnqASMVVu4-21" value="" style="edgeStyle=orthogonalEdgeStyle;orthogonalLoop=1;jettySize=auto;html=1;shadow=0;labelBackgroundColor=none;sourcePerimeterSpacing=5;endFill=0;sketch=1;curved=1;fontFamily=Comic Sans MS;" parent="WIyWlLk6GJQsqaUBKTNV-1" source="ShlEn4j8O6UnqASMVVu4-14" target="ShlEn4j8O6UnqASMVVu4-20" edge="1">
          <mxGeometry relative="1" as="geometry" />
        </mxCell>
        <mxCell id="ShlEn4j8O6UnqASMVVu4-22" value="Failed" style="edgeLabel;html=1;align=center;verticalAlign=middle;resizable=0;points=[];sketch=1;rounded=1;fontFamily=Comic Sans MS;" parent="ShlEn4j8O6UnqASMVVu4-21" vertex="1" connectable="0">
          <mxGeometry x="-0.2" relative="1" as="geometry">
            <mxPoint x="-25" as="offset" />
          </mxGeometry>
        </mxCell>
        <mxCell id="ShlEn4j8O6UnqASMVVu4-14" value="Tests?" style="rhombus;whiteSpace=wrap;html=1;sketch=1;rounded=1;fontFamily=Comic Sans MS;" parent="WIyWlLk6GJQsqaUBKTNV-1" vertex="1">
          <mxGeometry x="572.5" y="400" width="125" height="140" as="geometry" />
        </mxCell>
        <mxCell id="ShlEn4j8O6UnqASMVVu4-17" value="&lt;font&gt;Success&lt;/font&gt;" style="edgeLabel;html=1;align=center;verticalAlign=middle;resizable=0;points=[];sketch=1;rounded=1;fontFamily=Comic Sans MS;" parent="WIyWlLk6GJQsqaUBKTNV-1" vertex="1" connectable="0">
          <mxGeometry x="750" y="210" as="geometry">
            <mxPoint x="-232" y="236" as="offset" />
          </mxGeometry>
        </mxCell>
        <mxCell id="gfSIw2gubmKbZ-zP2BRi-6" style="edgeStyle=orthogonalEdgeStyle;curved=1;rounded=1;sketch=1;orthogonalLoop=1;jettySize=auto;html=1;entryX=0.5;entryY=1;entryDx=0;entryDy=0;fontFamily=Comic Sans MS;fontSize=12;" edge="1" parent="WIyWlLk6GJQsqaUBKTNV-1" source="ShlEn4j8O6UnqASMVVu4-20" target="WIyWlLk6GJQsqaUBKTNV-3">
          <mxGeometry relative="1" as="geometry" />
        </mxCell>
        <mxCell id="gfSIw2gubmKbZ-zP2BRi-7" value="Failed" style="edgeLabel;html=1;align=center;verticalAlign=middle;resizable=0;points=[];fontSize=12;fontFamily=Comic Sans MS;" vertex="1" connectable="0" parent="gfSIw2gubmKbZ-zP2BRi-6">
          <mxGeometry x="-0.8783" y="-4" relative="1" as="geometry">
            <mxPoint as="offset" />
          </mxGeometry>
        </mxCell>
        <mxCell id="ShlEn4j8O6UnqASMVVu4-20" value="Notify&amp;nbsp;" style="whiteSpace=wrap;html=1;sketch=1;rounded=1;fontFamily=Comic Sans MS;" parent="WIyWlLk6GJQsqaUBKTNV-1" vertex="1">
          <mxGeometry x="572.5" y="590" width="120" height="60" as="geometry" />
        </mxCell>
        <mxCell id="ShlEn4j8O6UnqASMVVu4-26" style="edgeStyle=orthogonalEdgeStyle;curved=1;rounded=1;sketch=1;orthogonalLoop=1;jettySize=auto;html=1;entryX=0;entryY=0.5;entryDx=0;entryDy=0;fontSize=12;exitX=1;exitY=0.5;exitDx=0;exitDy=0;exitPerimeter=0;fontFamily=Comic Sans MS;" parent="WIyWlLk6GJQsqaUBKTNV-1" source="gfSIw2gubmKbZ-zP2BRi-3" target="ShlEn4j8O6UnqASMVVu4-27" edge="1">
          <mxGeometry relative="1" as="geometry">
            <mxPoint x="360" y="257.2349999999999" as="sourcePoint" />
          </mxGeometry>
        </mxCell>
        <mxCell id="ShlEn4j8O6UnqASMVVu4-28" style="edgeStyle=orthogonalEdgeStyle;curved=1;rounded=1;sketch=1;orthogonalLoop=1;jettySize=auto;html=1;exitX=1;exitY=0.5;exitDx=0;exitDy=0;entryX=0;entryY=0.5;entryDx=0;entryDy=0;fontSize=12;fontFamily=Comic Sans MS;" parent="WIyWlLk6GJQsqaUBKTNV-1" source="ShlEn4j8O6UnqASMVVu4-27" target="WIyWlLk6GJQsqaUBKTNV-6" edge="1">
          <mxGeometry relative="1" as="geometry" />
        </mxCell>
        <mxCell id="ShlEn4j8O6UnqASMVVu4-30" value="Yes" style="edgeLabel;html=1;align=center;verticalAlign=middle;resizable=0;points=[];fontSize=12;fontFamily=Comic Sans MS;" parent="ShlEn4j8O6UnqASMVVu4-28" vertex="1" connectable="0">
          <mxGeometry x="-0.3134" y="-7" relative="1" as="geometry">
            <mxPoint as="offset" />
          </mxGeometry>
        </mxCell>
        <mxCell id="ShlEn4j8O6UnqASMVVu4-31" style="edgeStyle=orthogonalEdgeStyle;curved=1;rounded=1;sketch=1;orthogonalLoop=1;jettySize=auto;html=1;exitX=0.5;exitY=0;exitDx=0;exitDy=0;fontSize=12;fontFamily=Comic Sans MS;" parent="WIyWlLk6GJQsqaUBKTNV-1" source="ShlEn4j8O6UnqASMVVu4-27" edge="1">
          <mxGeometry relative="1" as="geometry">
            <mxPoint x="90" y="290" as="targetPoint" />
            <Array as="points">
              <mxPoint x="495" y="100" />
              <mxPoint x="90" y="100" />
            </Array>
          </mxGeometry>
        </mxCell>
        <mxCell id="ShlEn4j8O6UnqASMVVu4-32" value="&lt;font&gt;No&lt;/font&gt;" style="edgeLabel;html=1;align=center;verticalAlign=middle;resizable=0;points=[];fontSize=12;fontFamily=Comic Sans MS;" parent="ShlEn4j8O6UnqASMVVu4-31" vertex="1" connectable="0">
          <mxGeometry x="-0.7878" y="4" relative="1" as="geometry">
            <mxPoint x="19" y="58" as="offset" />
          </mxGeometry>
        </mxCell>
        <mxCell id="ShlEn4j8O6UnqASMVVu4-27" value="Request &lt;br&gt;Valid?" style="rhombus;whiteSpace=wrap;html=1;shadow=0;fontFamily=Comic Sans MS;fontSize=12;align=center;strokeWidth=1;spacing=6;spacingTop=-4;sketch=1;rounded=1;" parent="WIyWlLk6GJQsqaUBKTNV-1" vertex="1">
          <mxGeometry x="450" y="190" width="90" height="70" as="geometry" />
        </mxCell>
        <mxCell id="ShlEn4j8O6UnqASMVVu4-23" value="" style="edgeStyle=orthogonalEdgeStyle;curved=1;rounded=1;sketch=1;orthogonalLoop=1;jettySize=auto;html=1;entryX=0.5;entryY=0;entryDx=0;entryDy=0;fontSize=12;exitX=0.5;exitY=1;exitDx=0;exitDy=0;fontFamily=Comic Sans MS;" parent="WIyWlLk6GJQsqaUBKTNV-1" source="WIyWlLk6GJQsqaUBKTNV-6" target="ShlEn4j8O6UnqASMVVu4-4" edge="1">
          <mxGeometry x="-0.8049" relative="1" as="geometry">
            <mxPoint x="653" y="230" as="sourcePoint" />
            <Array as="points" />
            <mxPoint as="offset" />
          </mxGeometry>
        </mxCell>
        <mxCell id="ShlEn4j8O6UnqASMVVu4-34" value="Yes" style="edgeLabel;html=1;align=center;verticalAlign=middle;resizable=0;points=[];fontSize=12;fontFamily=Comic Sans MS;" parent="ShlEn4j8O6UnqASMVVu4-23" vertex="1" connectable="0">
          <mxGeometry x="-0.4732" y="-7" relative="1" as="geometry">
            <mxPoint x="24.5" y="-12" as="offset" />
          </mxGeometry>
        </mxCell>
        <mxCell id="gfSIw2gubmKbZ-zP2BRi-3" value="" style="aspect=fixed;pointerEvents=1;shadow=0;dashed=0;html=1;labelPosition=center;verticalLabelPosition=bottom;verticalAlign=top;align=center;shape=mxgraph.azure.script_file;rounded=1;labelBackgroundColor=none;sketch=1;fontFamily=Comic Sans MS;fontSize=12;" vertex="1" parent="WIyWlLk6GJQsqaUBKTNV-1">
          <mxGeometry x="300" y="240" width="47" height="50" as="geometry" />
        </mxCell>
      </root>
    </mxGraphModel>
  </diagram>
</mxfile>
